<?xml version="1.0" encoding="utf-8"?>
<!-- Generator: Adobe Illustrator 25.2.3, SVG Export Plug-In . SVG Version: 6.00 Build 0)  -->
<svg version="1.1" id="Layer_1" xmlns="http://www.w3.org/2000/svg" xmlns:xlink="http://www.w3.org/1999/xlink" x="0px" y="0px"
	 viewBox="0 0 2343.2 1559.4" style="enable-background:new 0 0 2343.2 1559.4;" xml:space="preserve">
<style type="text/css">
	.st0{clip-path:url(#XMLID_2_);fill:#3E5409;}
	.st1{clip-path:url(#XMLID_3_);}
	.st2{clip-path:url(#XMLID_4_);}
	.st3{fill:#E3EEFD;}
	.st4{clip-path:url(#XMLID_4_);fill:#E3EEFD;}
	.st5{fill:#FFFFFF;}
	.st6{clip-path:url(#XMLID_5_);fill:#3E5409;}
	.st7{fill:#38385C;}
	.st8{clip-path:url(#XMLID_6_);fill:#739BFD;}
	.st9{opacity:0.2;clip-path:url(#XMLID_6_);fill:#FFFFFF;}
	.st10{fill:#F85C3D;}
	.st11{fill:#1A1A35;}
	.st12{clip-path:url(#XMLID_7_);fill:#1A1A35;}
	.st13{fill:#FFB6A6;}
	.st14{clip-path:url(#XMLID_8_);fill:#FF8370;}
	.st15{clip-path:url(#XMLID_8_);fill:#FFFFFF;}
	.st16{clip-path:url(#XMLID_9_);fill:#DF4930;}
	.st17{fill:#DF4930;}
	.st18{clip-path:url(#XMLID_10_);fill:#DF4930;}
	.st19{clip-path:url(#XMLID_11_);fill:#FFFFFF;}
	.st20{fill:#EDA26A;}
	.st21{clip-path:url(#XMLID_12_);fill:#FF8370;}
</style>
<g>
	<defs>
		<path id="XMLID_340_" d="M238.4,1409c0,0-167-1.6-238.4-100.7c0,0,116.5-3.3,158.9,22.4c0,0-104.9-38.4-147.2-159.4
			c0,0,118.1,27.7,153.1,70c0,0-51.2-43.7-75.9-138.5c0,0,88.5,30,121.5,71.1L238.4,1409z"/>
	</defs>
	<use xlink:href="#XMLID_340_"  style="overflow:visible;fill:#A7BD37;"/>
	<clipPath id="XMLID_2_">
		<use xlink:href="#XMLID_340_"  style="overflow:visible;"/>
	</clipPath>
	<path class="st0" d="M157.3,1124.6c0,0,32.7,255.5,10.4,288.2l102.9,8l-55.8-296.2H157.3z"/>
</g>
<g>
	<defs>
		<path id="XMLID_339_" d="M2329.8,789.9c-48.9-295.2-287-318.6-536.5-284.5c-215.4,5.1-301.2-228.3-440.9-353
			c-812-613.7-1518.8,803-594.1,1125.9C1182.3,1357.7,2388.3,1456.2,2329.8,789.9z"/>
	</defs>
	<use xlink:href="#XMLID_339_"  style="overflow:visible;fill:#E3EEFD;"/>
	<clipPath id="XMLID_3_">
		<use xlink:href="#XMLID_339_"  style="overflow:visible;"/>
	</clipPath>
	<g class="st1">
		<defs>
			<polyline id="XMLID_30_" points="400.8,990.2 400.8,553 676.1,553 676.1,870 778.7,870 778.7,729 1030.8,729 1030.8,972.4 
				1245.7,972.4 1245.7,811 1541.9,811 1541.9,611.5 1906.2,611.5 1906.2,1019.1 2058,1019.1 2058,895.1 2415,895.1 2415,1344.3 
				421.5,1344.3 400.8,990.2 			"/>
		</defs>
		<use xlink:href="#XMLID_30_"  style="overflow:visible;fill:#CCDFFE;"/>
		<clipPath id="XMLID_4_">
			<use xlink:href="#XMLID_30_"  style="overflow:visible;"/>
		</clipPath>
		<g class="st2">
			<rect x="598" y="581.3" class="st3" width="43.1" height="43.1"/>
			<rect x="598" y="648.1" class="st3" width="43.1" height="43.1"/>
			<rect x="598" y="715" class="st3" width="43.1" height="43.1"/>
			<rect x="598" y="781.8" class="st3" width="43.1" height="43.1"/>
		</g>
		<g class="st2">
			<g>
				<rect x="800.9" y="747.8" class="st3" width="37" height="32.7"/>
				<rect x="856.7" y="747.8" class="st3" width="37" height="32.7"/>
			</g>
			<g>
				<rect x="800" y="791.9" class="st3" width="37" height="32.7"/>
				<rect x="855.8" y="791.9" class="st3" width="37" height="32.7"/>
			</g>
			<g>
				<rect x="799.1" y="836" class="st3" width="37" height="32.7"/>
				<rect x="854.9" y="836" class="st3" width="37" height="32.7"/>
			</g>
		</g>
		<g class="st2">
			<rect x="1272.9" y="831.3" class="st3" width="34.7" height="293.3"/>
			<rect x="1323.5" y="831.3" class="st3" width="34.7" height="231.3"/>
		</g>
		<g class="st2">
			<rect x="1575.6" y="636.3" class="st3" width="52" height="52"/>
			<rect x="1655" y="636.3" class="st3" width="52" height="52"/>
			<rect x="1734.4" y="636.3" class="st3" width="52" height="52"/>
			<rect x="1813.9" y="636.3" class="st3" width="52" height="52"/>
		</g>
		<g class="st2">
			<rect x="1575.6" y="709.1" class="st3" width="52" height="52"/>
			<rect x="1655" y="709.1" class="st3" width="52" height="52"/>
			<rect x="1734.4" y="709.1" class="st3" width="52" height="52"/>
			<rect x="1813.9" y="709.1" class="st3" width="52" height="52"/>
		</g>
		<g class="st2">
			<rect x="1575.6" y="782" class="st3" width="52" height="52"/>
			<rect x="1655" y="782" class="st3" width="52" height="52"/>
			<rect x="1734.4" y="782" class="st3" width="52" height="52"/>
			<rect x="1813.9" y="782" class="st3" width="52" height="52"/>
		</g>
		<rect x="2093.4" y="913.2" class="st4" width="247.2" height="36.2"/>
		<rect x="2092.9" y="973.9" class="st4" width="247.2" height="36.2"/>
	</g>
</g>
<g>
	<polygon class="st3" points="493.1,1407.9 2343.2,1414.2 1541.9,1559.4 251.4,1409 	"/>
	<path class="st5" d="M426,1407.9l1616.4,60.7c-102.9,85.5-1530.4-58.6-1680.6-59.7L426,1407.9z"/>
</g>
<g>
	<defs>
		<path id="XMLID_338_" d="M613.6,1171.2c0,0-16.2-89.2,125.6-152.1c0,0-14.2,120.6-51.6,160.2c0,0-1-50,155.5-54.7
			c0,0-65.7,117.5-115.1,145.1c0,0,49.5-28.3,175.4-25.7c0,0-90.3,94.4-154,111c0,0,43.8-21.9,127.8,0c0,0-134.9,53.9-227.5,53.9
			L613.6,1171.2z"/>
	</defs>
	<use xlink:href="#XMLID_338_"  style="overflow:visible;fill:#A7BD37;"/>
	<clipPath id="XMLID_5_">
		<use xlink:href="#XMLID_338_"  style="overflow:visible;"/>
	</clipPath>
	<path class="st6" d="M638.4,1072.6l54.2,250c8.3,42.2,42.2,72,81.8,85.3l-170.8,6.7l-12.6-304.1L638.4,1072.6z"/>
</g>
<g>
	<g>
		<g>
			<path class="st7" d="M238.4,1409l411.3-0.1c16.1,0,27.2-12.9,24.8-28.8L558.9,614.6c-2.4-15.9-17.4-28.8-33.5-28.8L114,586
				c-16.1,0-27.2,12.9-24.8,28.8l115.7,765.5C207.3,1396.2,222.3,1409,238.4,1409z"/>
			<g>
				<defs>
					<polygon id="XMLID_337_" points="633.1,1348.4 236.8,1348.5 130.6,646.5 526.9,646.4 					"/>
				</defs>
				<use xlink:href="#XMLID_337_"  style="overflow:visible;fill:#B9D4FD;"/>
				<clipPath id="XMLID_6_">
					<use xlink:href="#XMLID_337_"  style="overflow:visible;"/>
				</clipPath>
				<polyline class="st8" points="526.9,646.4 170.7,674 287.9,1352.5 225.5,1348.5 117.5,632.8 526.9,646.4 				"/>
				<polygon class="st9" points="616.6,905 198.3,1346.4 218,1477 633.1,1036.6 				"/>
				<polygon class="st9" points="740.5,1048.4 322.2,1489.8 341.9,1620.3 756.9,1179.9 				"/>
				<polygon class="st9" points="587.5,671.5 169.2,1113 188.9,1243.5 603.9,803.1 				"/>
				<polygon class="st9" points="523.1,470.5 104.8,912 124.5,1042.5 539.5,602.1 				"/>
			</g>
			<path class="st5" d="M360.6,626.1l-75,0c-3.6,0-7-2.9-7.5-6.4l0,0c-0.5-3.6,1.9-6.4,5.6-6.4l75,0c3.6,0,7,2.9,7.5,6.4l0,0
				C366.7,623.2,364.2,626.1,360.6,626.1z"/>
		</g>
	</g>
	<g>
		<g>
			<path class="st10" d="M479,996c-12.2-54.6-66.4-98.9-121-98.9c-126.4,9.9-100.7,172.4,63.6,284.4C512.3,1099.5,479,996,479,996z"
				/>
			<path class="st7" d="M412.3,987.8c8.1,54-65.9,41.9-73.1,0C331.1,933.8,405.1,945.9,412.3,987.8z"/>
		</g>
	</g>
	<path class="st5" d="M531.3,1222.5c5.1,14.5-217,14.5-211.9,0C314.4,1208.1,536.4,1208.1,531.3,1222.5z"/>
</g>
<g>
	<g>
		<path id="XMLID_336_" class="st7" d="M1374.7,601.2c-10.4-15-28.9-22.1-46.6-18l-306.5,61.5l-117.3,84.7l16.8,29.8l9.1,197.7
			l-151.5,108l24.2,45.4c255.8-67.8,227.9-8.8,284.2-277l229.8-110.3l183.8,213.7l66.7-56.3L1374.7,601.2z"/>
		<path class="st11" d="M901.2,781.2c0,0,35.7-129.9,198.5-151.5C1099.6,629.7,962.1,694.5,901.2,781.2z"/>
		<polygon class="st11" points="930.1,957.1 956.6,705.4 920.2,754 		"/>
		<path class="st11" d="M1340.3,700.3c-21-27.6-46.6-12.5-68.2,4.6c-49.3,34.4-114.4,39.6-168.2,12.9l-16.7,115.7l229.8-110.3
			l183.8,213.7L1340.3,700.3z"/>
		<g>
			<path class="st7" d="M1519.1,912.3l24.8-129.9c4.2-23.6,23.4-41.7,46.4-47.3c-28.2-19.4-66.8,12.4-71.3,41.8
				c0,0-24.8,129.9-24.8,129.9c-5.3,27.3,17.4,52.3,45,49.6C1524.5,947.8,1515.7,930.6,1519.1,912.3z"/>
			<path class="st11" d="M1574.7,929.2c14.8-53.7,78.1-146.6,17.3-192.8h0c-0.5-0.4-1.1-0.9-1.6-1.3c-23,5.6-42.1,23.6-46.4,47.3
				c0,0-24.8,129.9-24.8,129.9c-3.5,18.3,5.4,35.5,20.1,44.1C1555.2,954.9,1569.1,944.4,1574.7,929.2z"/>
		</g>
		<path class="st11" d="M1500.7,936.9c0,0-10.3-10.3-6.5-30.1c3.8-19.8,19.8-103.7,19.8-103.7l-55,85.2L1500.7,936.9z"/>
		<g>
			<defs>
				<path id="XMLID_335_" d="M769.7,1072.7c-17.1,1.5-40.3,26.6-40.3,26.6l0,0c-17.5,15.2-45.5,62.2-36.7,88.7
					c1.7,9.8,11,16.4,20.9,14.9c41.8-8.6,58.3-64.8,71.6-93.2C789,1099.5,783.1,1071.1,769.7,1072.7z"/>
			</defs>
			<use xlink:href="#XMLID_335_"  style="overflow:visible;fill:#38385C;"/>
			<clipPath id="XMLID_7_">
				<use xlink:href="#XMLID_335_"  style="overflow:visible;"/>
			</clipPath>
			<path class="st12" d="M687.6,1179.3c1.4,0,27.6,4.9,37.8-0.6c10.2-5.4,56.1-75.4,56.1-75.4l9.2,4.8
				c-12.8,51.3-22.3,107.3-99,100.6L687.6,1179.3z"/>
		</g>
		<path class="st13" d="M780.2,1068.1l-18.8,12.2c-29.2,20,0.6,70.8,25.2,27l12.7-3.6L780.2,1068.1z"/>
		<g>
			<g>
				<g>
					<defs>
						<path id="XMLID_334_" d="M805.4,275.3l-62.2,29.2l65.9,135.5l46.2-30.7l-14.1-31.4c14.1-9.4,34.3-20.5,19.7-39.8
							C860.8,338.2,805.4,275.3,805.4,275.3z"/>
					</defs>
					<use xlink:href="#XMLID_334_"  style="overflow:visible;fill:#FFB6A6;"/>
					<clipPath id="XMLID_8_">
						<use xlink:href="#XMLID_334_"  style="overflow:visible;"/>
					</clipPath>
					<path class="st14" d="M766.5,312c0,0,27.2,15.5,74.2-0.8l-24.3-28.6L766.5,312"/>
					<path class="st15" d="M847.8,338.1c0,0-26.1,4.9-34,7.1C806,347.5,843,349.3,847.8,338.1z"/>
					<path class="st14" d="M838.2,404.2l-44.8-32.6c0,0,36-3.8,49.9-4.3c13.9-0.6,22.3-24.8,22.3-24.8c18.3,14-16.1,32.9-20.5,36.4
						l7.9,21.1L838.2,404.2z"/>
				</g>
				<path class="st7" d="M766.5,312c0,0,27.1-2.8,54.3-11l-28.7-1.3c0,0,41.3-1.9,61-16.6c0,0-41.2-38.4-83.1-17.6
					c-41.9,20.8-37.1,37.3-37.1,37.3c-31.5,27.5,37.9,74.5,47.1,77.3c10.7-18.9,14-23.9,0.6-43.8c-15.9,13.4-34.2-23-6.6-14.1
					L766.5,312z"/>
				<g>
					<g>
						<defs>
							<path id="XMLID_333_" d="M742.2,352.8c0,0,3.2-28.2,37.1-72.9l37.2-26.2c11.7-8.3,11.9-23.6,5.9-35.5c-1-2.6-4.2-3.6-6.5-2
								L780,242C711.6,239.5,685.5,314.7,742.2,352.8z"/>
						</defs>
						<use xlink:href="#XMLID_333_"  style="overflow:visible;fill:#F85C3D;"/>
						<clipPath id="XMLID_9_">
							<use xlink:href="#XMLID_333_"  style="overflow:visible;"/>
						</clipPath>
						<path class="st16" d="M780,242c0,0,13.7,17.1-0.6,37.9c-14.3,20.8,0,0,0,0s-1.2-35.7-18.3-37.2
							C761.1,242.6,773.6,240.4,780,242"/>
					</g>
					<path class="st17" d="M724.7,274.9c-5.9,9.7-12.8,5.4-6.7-4.2C723.9,261.1,730.7,265.3,724.7,274.9z"/>
				</g>
			</g>
			<path id="XMLID_316_" class="st10" d="M790.4,430.5c98.8-145.8,289.1,181.7,309.2,199.2c0,0-146.1,16.1-198.5,151.5l-72.6-185.9
				C828.6,595.3,778.7,471.2,790.4,430.5"/>
			<path class="st7" d="M790.4,430.5l-5.2-16.6c0,0,26.1-31.3,72-31.7l4.7,10C861.9,392.2,800.9,408.6,790.4,430.5z"/>
			<g>
				<defs>
					<path id="XMLID_315_" d="M790.4,430.5l-65.1,94.1c-8.5,12.2-6,28.9,5.6,38.2l40.6,32.4c15.3,12.2,37.7,9.5,49.7-6l60.2-78.1
						L790.4,430.5z"/>
				</defs>
				<use xlink:href="#XMLID_315_"  style="overflow:visible;fill:#F85C3D;"/>
				<clipPath id="XMLID_10_">
					<use xlink:href="#XMLID_315_"  style="overflow:visible;"/>
				</clipPath>
				<path class="st18" d="M717.8,528.9c22-33.1,125.3,20.6,132.6,25.6l-54.4,57c0,0-53.4,0.9-64.2-8.7
					C721,593.2,712.8,545.6,717.8,528.9z"/>
			</g>
			<path class="st17" d="M825.2,586.7l56.3-75.5c0,0-4.2,171.2,43.6,224c0,0-18.2,30.4-24,46.1L825.2,586.7z"/>
		</g>
		<g>
			<g>
				<defs>
					<polygon id="XMLID_314_" points="1305.2,585.2 1030.8,611.5 869,585.2 869,286.7 1030.8,255.7 1305.2,286.7 					"/>
				</defs>
				<use xlink:href="#XMLID_314_"  style="overflow:visible;fill:#EECD76;"/>
				<clipPath id="XMLID_11_">
					<use xlink:href="#XMLID_314_"  style="overflow:visible;"/>
				</clipPath>
				<polyline class="st19" points="1151.9,269.4 1149.8,465.5 1192.2,460.4 1194.3,275.3 1151.9,269.4 				"/>
			</g>
			<polygon class="st20" points="1030.8,611.5 869,585.2 869,286.7 1030.8,255.7 			"/>
		</g>
		<g>
			<defs>
				<path id="XMLID_313_" d="M1081.1,561.1c-5.6-1.9-49.4,15.9-64.3,0.9c34.2-43.5,0.4-22.8-23.1-1.9l-223.9-32.9
					c-17-2.5-33.8,5.4-42.8,20v0c-20.6,32.4,11.6,71.5,46.4,70.1c0,0,199-12.7,199-12.7l0,0.1c0,0,66.9,13.5,82.4,8.6
					C1070.4,608.5,1084.3,564.1,1081.1,561.1z"/>
			</defs>
			<use xlink:href="#XMLID_313_"  style="overflow:visible;fill:#FFB6A6;"/>
			<clipPath id="XMLID_12_">
				<use xlink:href="#XMLID_313_"  style="overflow:visible;"/>
			</clipPath>
			<path class="st21" d="M721.6,549.1c0,0,23.8,39,72.3,42.9s178.6,12.6,178.6,12.6c-23.4-2-244.4,61.6-262.4-7.7
				C710.2,581.7,721.6,549.1,721.6,549.1z"/>
		</g>
	</g>
	<g>
		<g>
			<g>
				<path class="st10" d="M1981.1,958.2c-1.3-277.2-422.8-277.2-424,0c0,0-21.8,222,212,398
					C2002.9,1180.3,1981.1,958.2,1981.1,958.2z"/>
				<path class="st7" d="M1842.1,940.7c-1.8,103.1-155.1,103.1-156.9,0C1687.1,837.6,1840.4,837.6,1842.1,940.7z"/>
			</g>
		</g>
	</g>
</g>
<path class="st7" d="M1763.7,707.4c-3.4-1.3-1.7-3.1-4.7-10.2c-0.3-1,0.2-2.1,1.2-2.4c1-0.3,2.1,0.2,2.4,1.2c1.8,5.4,2.7,8.4,2.9,9
	l-1.8,0.6l0.3,1.9C1763.9,707.4,1763.8,707.4,1763.7,707.4z M1757.1,687.5c-3.7-1.7-3.6-8.5-5.8-12.1c-0.9-2.3,2.8-3.7,3.6-1.4
	C1755.2,677.3,1761.9,686.6,1757.1,687.5z M1748.9,665.8c-3.8-1.9-3.8-8.4-6.1-11.9c-1-2.3,2.7-3.8,3.6-1.5
	C1746.8,655.6,1753.9,664.9,1748.9,665.8z M1740.2,644.4c-3.8-1.9-4-8.2-6.3-11.8c-1-2.3,2.6-3.8,3.5-1.5
	C1737.9,634.2,1745.2,643.5,1740.2,644.4z M1730.9,623.3c-3.8-1.9-4.1-8.1-6.6-11.6c-1.1-2.2,2.5-3.9,3.5-1.6
	C1728.4,613.2,1736,622.3,1730.9,623.3z M1721.2,602.3c-3.8-1.9-4.3-7.9-6.8-11.5c-1.1-2.2,2.4-4,3.4-1.7
	C1718.5,592.3,1726.3,601.3,1721.2,602.3z M1710.9,581.6c-3.7-1.9-4.4-7.8-7-11.3c-1.2-2.2,2.3-4,3.4-1.8
	C1708.1,571.6,1716.2,580.6,1710.9,581.6z M1700.3,561.1c-3.7-1.9-4.6-7.7-7.2-11.2c-1.2-2.2,2.2-4.1,3.4-1.8
	C1697.2,551.4,1705.6,559.8,1700.3,561.1z M1689.2,540.9c-3.7-1.9-4.7-7.6-7.4-11c-1.3-2.1,2.1-4.1,3.3-1.9
	C1686,531.1,1694.5,539.5,1689.2,540.9z M278.1,536.3c-1.1,0-2-0.9-1.9-2c0-0.2,0.2-4.3,0.9-11.8c0.2-2.5,4.1-2.1,3.8,0.4
	C279.4,532.2,281.6,535.2,278.1,536.3z M1677.7,520.9c-3.7-1.9-4.8-7.5-7.6-10.8c-0.5-0.9-0.3-2.1,0.7-2.6c3.9-1.2,6.2,8.1,8.6,10.6
	C1680.1,519.2,1679.1,520.9,1677.7,520.9z M280.2,513c-4.2-0.9-0.1-10.2-0.5-13.7c0.3-2.5,4.2-2,3.8,0.5
	C282.3,503.3,283.9,512.1,280.2,513z M1665.7,501.1c-3.7-1.8-5-7.4-7.7-10.7c-1.4-2.1,1.9-4.2,3.2-2.1
	C1662.2,491.5,1671.2,499.7,1665.7,501.1z M283.3,490.1c-4.3-0.9,0.2-10.3,0-13.7c0.4-2.5,4.3-1.8,3.8,0.7
	C285.7,480.4,286.9,489.1,283.3,490.1z M1653.4,481.6c-3.7-1.8-5.1-7.3-7.9-10.5c-1.4-2.1,1.9-4.2,3.2-2.1
	C1649.7,472,1658.9,480.2,1653.4,481.6z M287.2,467.3c-4.4-0.9,0.5-10.3,0.4-13.7c0.5-2.4,4.3-1.7,3.8,0.8
	C289.9,457.8,290.9,466.1,287.2,467.3z M1640.7,462.4c-3.7-1.8-5.2-7.2-8.1-10.3c-1.4-2,1.8-4.3,3.2-2.2
	C1636.8,452.8,1646.3,460.9,1640.7,462.4z M291.9,444.7c-4.5-0.9,0.8-10.3,0.7-13.6c0.5-2.4,4.4-1.5,3.7,0.9
	C294.8,435.3,295.5,443.4,291.9,444.7z M1627.5,443.4c-3.7-1.8-5.4-7.1-8.3-10.2c-1.5-2,1.7-4.3,3.1-2.3
	C1623.5,433.9,1633.2,441.9,1627.5,443.4z M1614,424.7c-3.7-1.8-5.5-7-8.5-10c-1.5-2,1.6-4.3,3.1-2.3
	C1609.8,415.3,1619.7,423.2,1614,424.7z M297.3,422.2c-4.6-0.9,1.1-10.3,1.1-13.6c0.6-2.4,4.4-1.4,3.7,1
	C300.4,413,300.9,420.9,297.3,422.2z M1600,406.3c-3.7-1.8-5.6-6.8-8.6-9.8c-0.7-0.8-0.5-2,0.3-2.7c3.7-1.7,7.1,7.3,9.8,9.4
	C1602.6,404.4,1601.6,406.4,1600,406.3z M303.4,399.9c-4.7-0.9,1.4-10.4,1.5-13.6c0.7-2.4,4.4-1.2,3.7,1.1
	C306.7,390.9,307.1,398.4,303.4,399.9z M1585.7,388.2c-3.7-1.8-5.7-6.7-8.8-9.6c-0.7-0.8-0.6-2,0.3-2.7c3.7-1.8,7.3,7.1,10,9.2
	C1588.2,386.3,1587.3,388.3,1585.7,388.2z M310.2,377.9c-4.8-0.9,1.6-10.3,1.9-13.5c0.8-2.4,4.5-1.1,3.6,1.3
	C313.7,369,313.9,376.3,310.2,377.9z M1571,370.4c-3.7-1.8-5.8-6.6-9-9.4c-1.7-1.9,1.3-4.4,2.9-2.5
	C1566.3,361.3,1577,368.8,1571,370.4z M317.8,356c-4.9-0.9,1.9-10.3,2.3-13.4c0.9-2.3,4.5-0.9,3.6,1.4
	C321.5,347.4,321.5,354.3,317.8,356z M1555.9,353c-3.7-1.8-5.9-6.4-9.1-9.2c-0.7-0.8-0.6-2,0.1-2.7c3.6-1.9,7.6,6.8,10.4,8.8
	C1558.5,351,1557.5,353,1555.9,353z M1540.5,335.9c-3.7-1.8-6.1-6.3-9.3-9c-0.7-0.8-0.7-2,0.1-2.7c3.6-2,7.7,6.6,10.6,8.5
	C1543,333.8,1542.1,335.9,1540.5,335.9z M326,334.5c-5-0.9,2.2-10.2,2.7-13.3c0.9-2.3,4.6-0.8,3.5,1.5
	C329.9,326.1,329.8,332.6,326,334.5z M1524.6,319.1c-3.7-1.8-6.2-6.1-9.4-8.8c-1.8-1.7,1-4.5,2.7-2.7
	C1519.4,310.2,1530.8,317.3,1524.6,319.1z M335.1,313.2c-5.1-1,2.5-10.2,3.1-13.2c1-2.3,4.6-0.6,3.5,1.6
	C339.2,305.1,338.8,311.4,335.1,313.2z M1508.4,302.7c-3.7-1.7-6.3-6-9.6-8.6c-0.8-0.7-0.8-2,0-2.7c3.5-2.2,8,6.2,11,8
	C1511,300.5,1510,302.7,1508.4,302.7z M344.9,292.3c-5.2-1.3,2.8-10,3.5-13.1c1.1-2.2,4.6-0.4,3.4,1.8
	C349.3,284.4,348.6,290.5,344.9,292.3z M1491.8,286.6c-1.6-0.5-12.7-9.6-9.8-11.1c3.4-2.2,8.2,6.1,11.2,7.8
	C1494.4,284.4,1493.5,286.7,1491.8,286.6z M355.5,271.8c-5.3-1.3,3.2-9.9,3.9-13c1.2-2.2,4.6-0.3,3.3,1.9
	C360.1,264.1,359.2,270,355.5,271.8z M1474.9,271c-1.7-0.6-12.8-9.2-10-10.9c3.4-2.3,8.3,5.9,11.3,7.5
	C1477.5,268.7,1476.6,271,1474.9,271z M1457.6,255.7c-1.7-0.7-12.9-8.8-10.2-10.6c3.3-2.4,8.5,5.7,11.5,7.3
	C1460.2,253.4,1459.3,255.8,1457.6,255.7z M366.9,251.8c-5.4-1.4,3.5-9.8,4.4-12.8c1.3-2.1,4.6-0.1,3.3,2
	C371.8,244.2,370.6,249.9,366.9,251.8z M1439.9,240.8c-1.9-0.9-13-8.4-10.4-10.4c3.3-2.5,8.5,5.5,11.7,7
	C1442.6,238.5,1441.7,240.9,1439.9,240.8z M379.1,232.2c-1.5,0-2.5-1.7-1.6-3c2.5-2.4,5.3-11.5,9.1-10.1c0.9,0.6,1.1,1.8,0.5,2.7
	C384.3,224.9,382.8,230.4,379.1,232.2z M1421.9,226.4c-1.9-1-13.1-8-10.6-10.2c3.2-2.6,8.7,5.3,11.8,6.7
	C1424.6,224,1423.7,226.5,1421.9,226.4z M392.1,213.2c-5.7-1.5,4.2-9.5,5.3-12.4c1.5-2,4.6,0.3,3.1,2.3
	C397.6,206.1,395.8,211.4,392.1,213.2z M1403.6,212.4c-2-1.1-13.2-7.6-10.8-9.9c3.1-2.6,8.8,5.1,12,6.4
	C1406.3,209.9,1405.4,212.4,1403.6,212.4z M1385,198.8c-2.1-1.2-13.2-7.1-11-9.6c3.1-2.7,8.9,4.8,12.1,6.2
	C1387.6,196.3,1386.8,198.9,1385,198.8z M406,194.8c-1.5,0-2.5-1.9-1.5-3.1c2.7-2.2,6.3-11,10-9.3c0.8,0.7,0.9,1.9,0.3,2.7
	C411.7,188,409.7,193,406,194.8z M1366,185.6c-2.1-1.2-13.3-6.8-11.2-9.4c3-2.8,9,4.7,12.3,5.9
	C1368.7,183.1,1367.8,185.7,1366,185.6z M420.7,177c-1.6,0.1-2.5-2-1.5-3.2c2.8-2.1,6.8-10.7,10.4-8.8c0.8,0.7,0.8,1.9,0.1,2.7
	C426.7,170.5,424.4,175.2,420.7,177z M1346.8,172.9c-2.2-1.3-13.3-6.3-11.4-9.1c2.9-2.9,9.2,4.4,12.4,5.6
	C1349.4,170.4,1348.6,173,1346.8,172.9z M1327.2,160.7c-2.3-1.3-13.4-5.9-11.5-8.8c2.9-2.9,9.3,4.2,12.5,5.3
	C1329.9,158.1,1329.1,160.8,1327.2,160.7z M436.3,160c-6.2-1.8,5.2-9,6.7-11.5c1.7-1.8,4.5,1,2.7,2.7
	C442.4,153.8,440,158.2,436.3,160z M1307.4,148.9c-2.3-1.3-13.5-5.6-11.7-8.6c2.8-3,9.3,4,12.7,5
	C1310,146.3,1309.3,149,1307.4,148.9z M452.6,143.7c-1.7,0.1-2.6-2.2-1.3-3.3c3-1.8,7.8-10,11.2-7.7c0.7,0.8,0.6,2-0.1,2.7
	C459,137.9,456.4,142,452.6,143.7z M1287.2,137.7c-2.4-1.4-13.4-5.1-11.9-8.3c2.7-3.1,9.4,3.8,12.8,4.7
	C1289.9,134.9,1289.2,137.7,1287.2,137.7z M469.8,128.3c-1.7,0.1-2.6-2.3-1.2-3.4c3.1-1.6,8.3-9.6,11.6-7.1
	C482.8,119.5,471.5,127.6,469.8,128.3z M1266.9,126.8c-3.8-1.3-7.4-3.8-11.1-5.4c-2.2-1.1-0.5-4.6,1.7-3.4
	C1259.6,119.7,1274,123.9,1266.9,126.8z M1246.2,116.5c-2.5-1.4-13.5-4.4-12.1-7.7c2.6-3.2,9.6,3.3,13,4.1
	C1248.9,113.7,1248.2,116.6,1246.2,116.5z M487.7,113.8c-1.8,0.1-2.6-2.4-1.2-3.4c3.2-1.4,8.8-9.2,12-6.5
	C500.9,106,489.6,112.8,487.7,113.8z M1225.4,106.7c-2.5-1.4-13.6-4.1-12.3-7.4c2.5-3.2,9.7,3.1,13.1,3.8
	C1228.1,103.8,1227.4,106.8,1225.4,106.7z M506.3,100.2c-1.8,0.1-2.7-2.5-1.1-3.5c3.2-1.3,9.2-8.7,12.3-5.9
	C519.6,93.4,508.4,99,506.3,100.2z M1204.3,97.3c-2.7-1.5-13.5-3.6-12.4-7.2c2.4-3.3,9.7,2.9,13.2,3.5
	C1207,94.4,1206.3,97.4,1204.3,97.3z M1183,88.5c-2.7-1.5-13.5-3.3-12.5-6.9c2.1-3.4,9.9,2.7,13.2,3.2
	C1185.7,85.5,1185,88.5,1183,88.5z M525.6,87.6c-1.9,0.1-2.7-2.6-1-3.6c3.3-1.1,9.7-8.2,12.6-5.3C539,81.6,527.9,86.3,525.6,87.6z
	 M1161.5,80.1c-2.7-1.5-13.5-3-12.6-6.6c2-3.4,10,2.4,13.3,2.9C1164.2,77.1,1163.6,80.2,1161.5,80.1z M545.5,76
	c-1.9,0.1-2.7-2.7-0.9-3.6c3.4-0.9,10.1-7.7,12.8-4.6C559.1,70.8,547.9,74.6,545.5,76z M1139.8,72.2c-2.8-1.4-13.5-2.7-12.7-6.3
	c2-3.5,10.1,2.2,13.4,2.6C1142.5,69.1,1141.9,72.3,1139.8,72.2z M566,65.4c-2,0.1-2.7-2.8-0.8-3.7c3.4-0.8,10.5-7.2,13-4
	C579.6,61.1,568.5,64,566,65.4z M1118,64.8c-2.8-1.4-13.6-2.3-12.8-6c1.9-3.5,10.1,2,13.4,2.3C1120.6,61.7,1120.1,64.9,1118,64.8z
	 M1096,58c-2.9-1.5-13.4-1.9-12.9-5.7c1.8-3.5,10.1,1.8,13.5,2C1098.6,54.8,1098.1,58,1096,58z M587,55.9c-2,0.1-2.7-2.9-0.8-3.7
	c3.3-0.6,11-6.7,13.2-3.3C600.6,52.2,589.6,54.4,587,55.9z M1073.8,51.6c-3.9-0.9-7.7-2.1-11.6-3.1c-2.4-0.6-1.4-4.4,1-3.7
	C1065.6,45.8,1081.3,47.7,1073.8,51.6z M608.4,47.4c-2.1,0.1-2.7-3.1-0.7-3.7c3.3-0.4,11.3-6.2,13.3-2.7
	C621.9,44.5,611.1,45.9,608.4,47.4z M1051.5,45.6c-3-1.4-13.4-1.3-13.1-5.2c1.7-3.6,10.2,1.3,13.5,1.4
	C1054.1,42.3,1053.7,45.7,1051.5,45.6z M1029.1,40.2c-3-1.3-13.4-1-13.1-4.9c1.6-3.7,10.2,1.1,13.6,1.1
	C1031.7,36.8,1031.3,40.2,1029.1,40.2z M630.2,39.9c-2.1,0.1-2.7-3.2-0.6-3.8c3.3-0.3,11.6-5.6,13.5-2.1
	C643.8,37.7,633,38.5,630.2,39.9z M1006.6,35.2c-3-1.3-13.3-0.7-13.2-4.6c1.5-3.7,10.3,0.9,13.6,0.8
	C1009.2,31.8,1008.8,35.3,1006.6,35.2z M652.3,33.4c-2.2,0.1-2.6-3.3-0.5-3.8c3.3-0.1,11.8-5.1,13.5-1.5
	C665.7,32,655.3,32,652.3,33.4z M984,30.7c-3-1.3-13.3-0.5-13.2-4.3c1.4-3.7,10.3,0.7,13.6,0.5C986.6,27.3,986.2,30.8,984,30.7z
	 M674.7,27.9c-2.2,0.1-2.6-3.4-0.4-3.8c3.3,0,12-4.6,13.6-0.9C688.1,27.1,677.7,26.6,674.7,27.9z M961.2,26.7
	c-3.1-1.2-13.2-0.2-13.3-4.1c1.1-3.7,10.4,0.5,13.6,0.2C963.8,23.2,963.5,26.7,961.2,26.7z M697.3,23.4c-2.3,0.1-2.6-3.5-0.3-3.8
	c3.3,0.2,12.2-4.1,13.6-0.3C710.6,23.1,700.3,22.1,697.3,23.4z M938.5,23.1c-3.2-1.2-13,0.2-13.3-3.8c1.3-3.8,10.2,0.2,13.6,0
	C941,19.6,940.8,23.2,938.5,23.1z M915.6,20c-3.3-1.2-13,0.5-13.4-3.5c1.2-3.8,10.2,0,13.6-0.4C918.2,16.4,917.9,20.1,915.6,20z
	 M720.1,19.7c-2.3,0.1-2.6-3.6-0.3-3.8c3.3,0.3,12.4-3.6,13.6,0.2C733.1,20,723.2,18.5,720.1,19.7z M892.7,17.5
	c-3.3-1.1-12.9,0.8-13.4-3.1c1.1-3.8,10.3-0.3,13.6-0.7C895.2,13.9,895,17.6,892.7,17.5z M743,17c-2.4,0.1-2.6-3.6-0.2-3.8
	c3.3,0.4,12.5-3.2,13.6,0.7C755.9,17.8,746.1,15.9,743,17z M869.7,15.6c-3.9-0.3-7.8-0.5-11.6-0.7c-2.5-0.1-2.3-4,0.2-3.8
	c3.2,1,12.8-1.2,13.3,2.8C871.5,14.8,870.7,15.6,869.7,15.6z M765.9,15c-1,0-1.8-0.8-1.9-1.8c0.5-4,10.1-1.8,13.3-2.7
	c2.5-0.2,2.7,3.8,0.2,3.8C773.7,14.6,769.8,14.8,765.9,15z M846.6,14.3c-3.8-0.2-7.7-0.3-11.6-0.4c-2.5,0-2.4-4,0.1-3.8
	c3.2,0.9,12.8-1.5,13.4,2.4C848.5,13.5,847.7,14.3,846.6,14.3z M789,13.9c-1,0-1.9-0.8-1.9-1.9c0.6-3.9,10.1-1.5,13.4-2.3
	c2.5-0.1,2.6,3.8,0.1,3.8C796.7,13.7,792.8,13.8,789,13.9z M823.6,13.6c-3-0.7-13.2,1.7-13.4-2c0.4-3.8,10.4-1.2,13.5-1.9
	C826.1,9.7,826,13.6,823.6,13.6z"/>
<g>
	<path class="st3" d="M2190,255.7h-423.4c23.8-37.1,64.8-84.6,113.5-67.6c30.9-123.7,209.5-114.4,227.4,11.7
		C2145.1,177.2,2193.5,215.1,2190,255.7z"/>
	<path class="st3" d="M1717.5,103.4h-299c18.6-16.6,44.1-22.2,68.6-17.6c20.7-49.5,95.3-52.9,120.4-5.5c15.2-12.8,35.5-0.3,47.8,11
		C1669.9,62.6,1710.6,76.7,1717.5,103.4z"/>
</g>
</svg>
